<?xml version="1.0" encoding="UTF-8" standalone="no"?>
<svg
   xmlns:dc="http://purl.org/dc/elements/1.1/"
   xmlns:cc="http://creativecommons.org/ns#"
   xmlns:rdf="http://www.w3.org/1999/02/22-rdf-syntax-ns#"
   xmlns:svg="http://www.w3.org/2000/svg"
   xmlns="http://www.w3.org/2000/svg"
   height="150"
   width="417"
   xml:space="preserve"
   viewBox="0 0 416.99999 150"
   y="0px"
   x="0px"
   id="Ebene_1"
   version="1.1"><metadata
     id="metadata99"><rdf:RDF><cc:Work
         rdf:about=""><dc:format>image/svg+xml</dc:format><dc:type
           rdf:resource="http://purl.org/dc/dcmitype/StillImage" /><dc:title></dc:title></cc:Work></rdf:RDF></metadata><defs
     id="defs97" /><style
     id="style3"
     type="text/css">
	.st0{fill:#332D34;}
	.st1{fill:url(#SVGID_1_);}
	.st2{fill:url(#SVGID_2_);}
	.st3{fill:url(#SVGID_3_);}
	.st4{fill:#FECD1A;}
	.st5{fill:url(#SVGID_4_);}
	.st6{fill:#D40032;}
</style><g
     transform="translate(-211.5,-213.1)"
     id="g5"><g
       id="g7"><path
         style="fill:#332d34"
         id="path9"
         d="m 262.8,330.8 0.2,0 c 0.3,-0.1 0.6,-0.1 1,-0.1 l 0,2.5 c -1.7,0.2 -3.1,0.9 -4.1,2 -1,1.1 -1.6,2.7 -1.8,4.6 l 0,0 0,11.2 -2.5,0 0,-20.5 2.5,0 0,4 c 1,-2 2.5,-3.2 4.7,-3.7 z"
         class="st0" /><path
         style="fill:#332d34"
         id="path11"
         d="m 286.8,341.7 -16.5,0 c 0,0.5 0.1,1 0.2,1.3 0.3,1.8 1.1,3.1 2.3,4.1 1.2,1 2.8,1.4 4.7,1.4 2.8,0 4.9,-0.9 6.2,-2.6 l 2.3,1.1 c -0.8,1.3 -2,2.2 -3.5,2.9 -1.5,0.7 -3.2,1 -5,1 -3,0 -5.3,-0.9 -7.1,-2.7 -1.7,-1.8 -2.6,-4.3 -2.7,-7.4 l 0,-0.2 c 0,-3.2 0.9,-5.7 2.6,-7.5 1.7,-1.8 4,-2.8 7,-2.8 2.5,0 4.6,0.7 6.3,2.1 1.7,1.4 2.7,3.4 3.1,5.9 0.1,0.7 0.2,1.3 0.2,2 l 0,1.4 z m -16.3,-3.6 c -0.1,0.4 -0.2,0.9 -0.2,1.4 l 14,0 c 0,-0.2 0,-0.4 -0.1,-0.7 l 0,-0.3 c 0,-0.1 0,-0.1 -0.1,-0.2 l 0,-0.2 c -0.4,-1.7 -1.2,-2.9 -2.3,-3.8 -1.2,-0.9 -2.6,-1.3 -4.4,-1.3 -1.8,0 -3.3,0.4 -4.4,1.3 -1.4,0.9 -2.1,2.2 -2.5,3.8 z"
         class="st0" /><path
         style="fill:#332d34"
         id="path13"
         d="m 309,330.5 2.5,0 0,20.5 -2.5,0 0,-4 c -1,2 -2.6,3.3 -4.7,3.7 l -0.2,0 c -0.7,0.1 -1.4,0.2 -2.1,0.2 -0.7,0 -1.4,-0.1 -2.1,-0.2 l -0.2,0 c -2.3,-0.5 -4,-1.6 -5.3,-3.4 -1.3,-1.8 -1.9,-4 -1.9,-6.7 0,-2.7 0.6,-4.9 1.9,-6.7 1.3,-1.8 3,-2.9 5.3,-3.3 l 0.2,0 c 0.6,-0.1 1.3,-0.2 2,-0.2 0.7,0 1.4,0.1 2.1,0.2 l 0.2,0 c 2.2,0.5 3.8,1.7 4.8,3.7 l 0,-3.8 z m -7,18.1 c 2.2,0 4,-0.7 5.2,-2 1.2,-1.4 1.8,-3.3 1.8,-5.8 l 0,0 c 0,-2.5 -0.6,-4.4 -1.8,-5.7 -1.2,-1.3 -3,-2 -5.2,-2 -2.2,0 -4,0.7 -5.2,2 -1.2,1.3 -1.8,3.3 -1.8,5.8 0,2.5 0.6,4.4 1.8,5.8 1.2,1.2 2.9,1.9 5.2,1.9 z"
         class="st0" /><path
         style="fill:#332d34"
         id="path15"
         d="m 321.6,319.9 0,31.1 -2.5,0 0,-31.2 2.5,0 z"
         class="st0" /><path
         style="fill:#332d34"
         id="path17"
         d="m 334.1,331 3.3,0 0,2.5 -3.3,0 0,8.7 0,1.1 0,1.7 c 0,2.4 1.1,3.5 3.1,3.5 l 0.1,0 0,2.5 -0.1,0 c -1.7,0 -3.1,-0.5 -4.1,-1.6 -1,-1.1 -1.5,-2.6 -1.5,-4.4 l 0,-0.6 0,-1.1 0,-9.8 -3.3,0 0,-2.5 3.3,0 0,-7.8 2.5,0 0,7.8 z"
         class="st0" /><path
         style="fill:#332d34"
         id="path19"
         d="m 529.6,331 3.3,0 0,2.5 -3.3,0 0,8.7 0,1.1 0,1.7 c 0,2.4 1,3.5 3.1,3.5 l 0.1,0 0,2.5 -0.1,0 c -1.7,0 -3.1,-0.5 -4.1,-1.6 -1,-1.1 -1.5,-2.6 -1.5,-4.4 l 0,-0.6 0,-1.1 0,-9.8 -3.3,0 0,-2.5 3.3,0 0,-7.8 2.5,0 0,7.8 z"
         class="st0" /><path
         style="fill:#332d34"
         id="path21"
         d="m 345.5,325.4 c -0.4,0 -0.8,-0.1 -1,-0.4 -0.2,-0.3 -0.4,-0.6 -0.4,-1 0,-0.4 0.1,-0.8 0.4,-1 0.3,-0.2 0.6,-0.4 1,-0.4 0.4,0 0.8,0.1 1,0.4 0.2,0.3 0.4,0.6 0.4,1 0,0.4 -0.1,0.8 -0.4,1 -0.3,0.2 -0.6,0.4 -1,0.4 z m -1.3,5.1 2.5,0 0,20.5 -2.5,0 0,-20.5 z"
         class="st0" /><path
         style="fill:#332d34"
         id="path23"
         d="m 386.5,351 -2.5,0 0,-10.3 c 0,-2.5 -0.5,-4.4 -1.6,-5.8 -1.1,-1.3 -2.6,-2 -4.6,-2 -1.8,0 -3.3,0.6 -4.3,1.7 -1.1,1.1 -1.7,2.8 -1.8,5 l 0,2.1 0,9.3 -2.5,0 0,-10.3 c 0,-2.5 -0.5,-4.4 -1.6,-5.8 -1.1,-1.4 -2.6,-2 -4.6,-2 -1.8,0 -3.3,0.6 -4.3,1.7 -1,1.1 -1.6,2.8 -1.8,5 l 0,11.4 -2.5,0 0,-20.5 2.5,0 0,3 c 0.6,-0.9 1.3,-1.6 2.2,-2.1 1.1,-0.6 2.4,-0.9 3.9,-0.9 1.4,0 2.7,0.3 3.9,0.9 1.7,0.9 3,2.3 3.8,4.2 0.6,-2 1.7,-3.4 3.2,-4.2 1.1,-0.6 2.4,-0.9 3.9,-0.9 1.5,0 2.8,0.3 3.9,0.9 1.5,0.8 2.7,2 3.5,3.6 0.8,1.6 1.2,3.6 1.2,5.8 l 0,10.2 z"
         class="st0" /><path
         style="fill:#332d34"
         id="path25"
         d="m 412.5,341.7 -16.5,0 c 0,0.5 0.1,1 0.2,1.3 0.3,1.8 1.1,3.1 2.3,4.1 1.2,1 2.8,1.4 4.7,1.4 2.8,0 4.9,-0.9 6.2,-2.6 l 2.3,1.1 c -0.8,1.3 -2,2.2 -3.5,2.9 -1.5,0.7 -3.2,1 -5,1 -3,0 -5.3,-0.9 -7.1,-2.7 -1.7,-1.8 -2.6,-4.3 -2.7,-7.4 l 0,-0.2 c 0,-3.2 0.9,-5.7 2.6,-7.5 1.7,-1.8 4,-2.8 7,-2.8 2.5,0 4.6,0.7 6.3,2.1 1.7,1.4 2.7,3.4 3.1,5.9 0.1,0.7 0.2,1.3 0.2,2 l 0,1.4 z m -16.3,-3.6 c -0.1,0.4 -0.2,0.9 -0.2,1.4 l 14,0 c 0,-0.2 0,-0.4 -0.1,-0.7 l 0,-0.3 c 0,-0.1 0,-0.1 -0.1,-0.2 l 0,-0.2 c -0.4,-1.7 -1.2,-2.9 -2.3,-3.8 -1.2,-0.9 -2.6,-1.3 -4.4,-1.3 -1.8,0 -3.3,0.4 -4.4,1.3 -1.4,0.9 -2.1,2.2 -2.5,3.8 z"
         class="st0" /><path
         style="fill:#332d34"
         id="path27"
         d="m 436.6,319.9 0,31.1 -2.5,0 0,-31.2 2.5,0 z"
         class="st0" /><path
         style="fill:#332d34"
         id="path29"
         d="m 452.4,330.5 c 2.9,0 5.3,0.9 7,2.8 1.7,1.8 2.6,4.3 2.6,7.5 0,3.2 -0.9,5.7 -2.6,7.5 -1.7,1.8 -4,2.8 -7,2.8 -2.9,0 -5.3,-0.9 -7,-2.8 -1.7,-1.8 -2.6,-4.3 -2.6,-7.5 0,-3.2 0.9,-5.7 2.6,-7.5 1.8,-1.9 4.1,-2.8 7,-2.8 z m 0,18.1 c 2.2,0 4,-0.7 5.2,-2 1.2,-1.4 1.8,-3.3 1.8,-5.8 0,-2.5 -0.6,-4.4 -1.8,-5.8 -1.2,-1.4 -3,-2 -5.2,-2 -2.2,0 -4,0.7 -5.2,2 -1.2,1.3 -1.8,3.3 -1.8,5.8 0,2.5 0.6,4.4 1.8,5.8 1.2,1.3 3,2 5.2,2 z"
         class="st0" /><path
         style="fill:#332d34"
         id="path31"
         d="m 484.3,330.5 2.5,0 0,22.3 c 0,3.2 -0.9,5.7 -2.8,7.5 -1.8,1.8 -4.3,2.8 -7.5,2.8 -3.9,0 -6.8,-1.4 -8.6,-4.1 l 2.3,-1.1 c 1.3,1.8 3.5,2.7 6.3,2.7 2.5,0 4.4,-0.7 5.7,-2 1.4,-1.4 2,-3.3 2,-5.8 l 0,-5.8 c -1,2 -2.6,3.3 -4.7,3.7 l -0.2,0 c -0.7,0.1 -1.4,0.2 -2.1,0.2 -0.7,0 -1.4,-0.1 -2.1,-0.2 l -0.2,0 c -2.3,-0.5 -4,-1.6 -5.3,-3.4 -1.3,-1.8 -1.9,-4 -1.9,-6.7 0,-2.7 0.6,-4.9 1.9,-6.7 1.3,-1.8 3,-2.9 5.3,-3.3 l 0.2,0 c 0.6,-0.1 1.3,-0.2 2,-0.2 0.7,0 1.4,0.1 2.1,0.2 l 0.2,0 c 2.2,0.5 3.8,1.7 4.8,3.7 l 0,-3.8 z m -7.1,18.1 c 2.2,0 4,-0.7 5.2,-2 1.2,-1.4 1.8,-3.3 1.8,-5.8 l 0,0 c 0,-2.5 -0.6,-4.4 -1.8,-5.7 -1.2,-1.3 -3,-2 -5.2,-2 -2.2,0 -4,0.7 -5.2,2 -1.2,1.3 -1.8,3.3 -1.8,5.8 0,2.5 0.6,4.4 1.8,5.8 1.3,1.2 3,1.9 5.2,1.9 z"
         class="st0" /><path
         style="fill:#332d34"
         id="path33"
         d="m 495.8,325.4 c -0.4,0 -0.8,-0.1 -1,-0.4 -0.2,-0.3 -0.4,-0.6 -0.4,-1 0,-0.4 0.1,-0.8 0.4,-1 0.3,-0.2 0.6,-0.4 1,-0.4 0.4,0 0.8,0.1 1,0.4 0.2,0.3 0.4,0.6 0.4,1 0,0.4 -0.1,0.8 -0.4,1 -0.3,0.2 -0.6,0.4 -1,0.4 z m -1.2,5.1 2.5,0 0,20.5 -2.5,0 0,-20.5 z"
         class="st0" /><path
         style="fill:#332d34"
         id="path35"
         d="m 511.7,339.3 c 2.6,0 4.6,0.6 6,1.9 1.2,1 1.7,2.4 1.7,4 0,1.6 -0.6,3 -1.7,4 -1.4,1.2 -3.4,1.9 -6,1.9 -2.2,0 -4,-0.5 -5.3,-1.4 -1.2,-0.8 -1.9,-1.8 -2.2,-3.1 l 2.5,-0.2 c 0.3,0.6 0.8,1.1 1.5,1.5 0.9,0.5 2.1,0.7 3.6,0.7 2.1,0 3.5,-0.4 4.4,-1.3 0.3,-0.3 0.6,-0.7 0.7,-1.1 0.1,-0.3 0.2,-0.6 0.2,-1 0,-0.3 -0.1,-0.7 -0.2,-1 -0.1,-0.4 -0.4,-0.8 -0.7,-1.1 -0.9,-0.9 -2.3,-1.3 -4.4,-1.3 -2.5,0 -4.4,-0.6 -5.8,-1.8 -1.1,-1 -1.7,-2.3 -1.7,-3.8 0,-1.5 0.6,-2.8 1.7,-3.8 1.3,-1.2 3.2,-1.8 5.8,-1.8 2.3,0 4.1,0.5 5.3,1.5 0.5,0.4 0.9,0.8 1.2,1.3 0.3,0.4 0.5,0.9 0.6,1.4 l -2.6,0.2 c -0.3,-0.5 -0.7,-1 -1.4,-1.3 -0.8,-0.4 -1.9,-0.6 -3.2,-0.6 -1.9,0 -3.3,0.4 -4.1,1.2 -0.3,0.3 -0.5,0.7 -0.7,1 -0.1,0.3 -0.2,0.6 -0.2,0.9 0,0.3 0.1,0.6 0.2,0.9 0.1,0.4 0.3,0.8 0.7,1 0.8,0.8 2.2,1.2 4.1,1.2 z"
         class="st0" /><path
         style="fill:#332d34"
         id="path37"
         d="m 541,325.4 c -0.4,0 -0.8,-0.1 -1,-0.4 -0.2,-0.3 -0.4,-0.6 -0.4,-1 0,-0.4 0.1,-0.8 0.4,-1 0.3,-0.2 0.6,-0.4 1,-0.4 0.4,0 0.8,0.1 1,0.4 0.2,0.3 0.4,0.6 0.4,1 0,0.4 -0.1,0.8 -0.4,1 -0.3,0.2 -0.6,0.4 -1,0.4 z m -1.2,5.1 2.5,0 0,20.5 -2.5,0 0,-20.5 z"
         class="st0" /><path
         style="fill:#332d34"
         id="path39"
         d="m 558.2,348.6 c 2.6,0 4.5,-0.9 5.7,-2.7 l 2.3,1 c -0.8,1.3 -1.9,2.3 -3.3,3.1 -1.4,0.7 -3,1.1 -4.7,1.1 -2.9,0 -5.3,-0.9 -7,-2.8 -1.7,-1.8 -2.6,-4.3 -2.6,-7.5 0,-3.2 0.9,-5.7 2.6,-7.5 1.7,-1.8 4,-2.8 7,-2.8 1.7,0 3.3,0.4 4.7,1.1 1.4,0.7 2.5,1.7 3.3,3 l -2.3,1 c -1.2,-1.8 -3.1,-2.6 -5.7,-2.6 -2.2,0 -4,0.7 -5.2,2 -1.2,1.4 -1.8,3.3 -1.8,5.8 0,2.5 0.6,4.4 1.8,5.8 1.2,1.3 2.9,2 5.2,2 z"
         class="st0" /><path
         style="fill:#332d34"
         id="path41"
         d="m 576.6,339.3 c 2.6,0 4.6,0.6 6,1.9 1.2,1 1.7,2.4 1.7,4 0,1.6 -0.6,3 -1.7,4 -1.4,1.2 -3.4,1.9 -6,1.9 -2.2,0 -4,-0.5 -5.3,-1.4 -1.2,-0.8 -1.9,-1.8 -2.2,-3.1 l 2.5,-0.2 c 0.3,0.6 0.8,1.1 1.5,1.5 0.9,0.5 2.1,0.7 3.6,0.7 2.1,0 3.5,-0.4 4.4,-1.3 0.3,-0.3 0.6,-0.7 0.7,-1.1 0.1,-0.3 0.2,-0.6 0.2,-1 0,-0.3 -0.1,-0.7 -0.2,-1 -0.1,-0.4 -0.4,-0.8 -0.7,-1.1 -0.9,-0.9 -2.3,-1.3 -4.4,-1.3 -2.5,0 -4.4,-0.6 -5.8,-1.8 -1.1,-1 -1.7,-2.3 -1.7,-3.8 0,-1.5 0.6,-2.8 1.7,-3.8 1.3,-1.2 3.2,-1.8 5.8,-1.8 2.3,0 4.1,0.5 5.3,1.5 0.5,0.4 0.9,0.8 1.2,1.3 0.3,0.4 0.5,0.9 0.6,1.4 l -2.6,0.2 c -0.3,-0.5 -0.7,-1 -1.4,-1.3 -0.8,-0.4 -1.9,-0.6 -3.2,-0.6 -1.9,0 -3.3,0.4 -4.1,1.2 -0.3,0.3 -0.5,0.7 -0.7,1 -0.1,0.3 -0.2,0.6 -0.2,0.9 0,0.3 0.1,0.6 0.2,0.9 0.1,0.4 0.3,0.8 0.7,1 0.8,0.8 2.2,1.2 4.1,1.2 z"
         class="st0" /></g><g
       id="g43"><linearGradient
         gradientTransform="translate(211.5,213.1)"
         y2="241.2776"
         x2="235.0777"
         y1="302.34009"
         x1="235.0777"
         gradientUnits="userSpaceOnUse"
         id="SVGID_1_"><stop
           id="stop46"
           style="stop-color:#111A20"
           offset="0" /><stop
           id="stop48"
           style="stop-color:#1A222A"
           offset="0.4452" /><stop
           id="stop50"
           style="stop-color:#242C34"
           offset="1" /></linearGradient><path
         style="fill:url(#SVGID_1_)"
         id="path52"
         d="m 243.3,266.4 c -6.6,-2.2 -12.7,-3 -12.1,-7.2 0.8,-6 8.3,-6.7 19.3,1.2 l 7.3,-11.4 c -7.6,-4.6 -12.5,-7.7 -22.2,-7.7 -10.8,0 -20.1,7.3 -20.1,17.6 0,10.9 7.6,14.3 18.6,17.7 4.2,1.3 8.3,2.6 8.3,6.8 0,7.1 -12.6,6.7 -20.9,-2.8 l -10,10.2 c 7,7 16.3,11.5 26.5,11.5 11.6,0 20.8,-9.4 20.8,-18.5 -0.1,-9.7 -7.5,-15 -15.5,-17.4 z"
         class="st1" /><linearGradient
         gradientTransform="translate(211.5,213.1)"
         y2="213.09959"
         x2="348.05869"
         y1="300.76489"
         x1="348.05869"
         gradientUnits="userSpaceOnUse"
         id="SVGID_2_"><stop
           id="stop55"
           style="stop-color:#111A20"
           offset="0" /><stop
           id="stop57"
           style="stop-color:#1A222A"
           offset="0.4452" /><stop
           id="stop59"
           style="stop-color:#242C34"
           offset="1" /></linearGradient><rect
         style="fill:url(#SVGID_2_)"
         id="rect61"
         height="87.699997"
         width="16.799999"
         class="st2"
         y="213.10001"
         x="339.70001" /><linearGradient
         gradientTransform="translate(211.5,213.1)"
         y2="242.4803"
         x2="296.13931"
         y1="302.34009"
         x1="296.13931"
         gradientUnits="userSpaceOnUse"
         id="SVGID_3_"><stop
           id="stop64"
           style="stop-color:#111A20"
           offset="0" /><stop
           id="stop66"
           style="stop-color:#1A222A"
           offset="0.4452" /><stop
           id="stop68"
           style="stop-color:#242C34"
           offset="1" /></linearGradient><path
         style="fill:url(#SVGID_3_)"
         id="path70"
         d="m 313.9,249.6 c -5.2,-4.5 -12.1,-7.1 -19.4,-7.1 -16.7,0 -30.1,13.3 -30.1,29.9 0,16.5 13.4,29.9 30.1,29.9 7.4,0 14.2,-2.6 19.4,-7.1 l 0,5.5 13.9,0 0,-56.6 -12.6,0 -1.3,5.5 z m -17.4,38.2 c -8.5,0 -15.5,-6.9 -15.5,-15.5 0,-8.5 6.9,-15.5 15.5,-15.5 8.5,0 15.5,6.9 15.5,15.5 0,8.5 -6.9,15.5 -15.5,15.5 z"
         class="st3" /><g
         id="g72"><path
           style="fill:#fecd1a"
           id="path74"
           d="m 521.1,213.1 0,33 c -4.5,-2.7 -9.8,-4.2 -15.4,-4.2 -16.7,0 -30.2,13.5 -30.2,30.2 0,16.7 13.5,30.2 30.2,30.2 5.6,0 10.9,-1.5 15.4,-4.2 l 0,2.7 15.5,0 0,-87.7 -15.5,0 z m -15.5,74.5 c -8.5,0 -15.5,-6.9 -15.5,-15.5 0,-8.6 6.9,-15.5 15.5,-15.5 8.4,0 15.2,6.7 15.4,15 l 0,0.9 c -0.2,8.4 -7,15.1 -15.4,15.1 z"
           class="st4" /></g><linearGradient
         gradientTransform="translate(211.5,213.1)"
         y2="241.8837"
         x2="417.34769"
         y1="302.34009"
         x1="417.34769"
         gradientUnits="userSpaceOnUse"
         id="SVGID_4_"><stop
           id="stop77"
           style="stop-color:#111A20"
           offset="0" /><stop
           id="stop79"
           style="stop-color:#1A222A"
           offset="0.4452" /><stop
           id="stop81"
           style="stop-color:#242C34"
           offset="1" /></linearGradient><path
         style="fill:url(#SVGID_4_)"
         id="path83"
         d="m 440.2,241.9 c -7.3,0 -14,2.6 -19.3,7 0.7,0.9 2.8,3.8 4.3,6.4 1.5,2.7 2.8,6.1 3.1,7 2.8,-3.5 7.1,-5.7 11.9,-5.7 8.5,0 15.5,6.9 15.5,15.5 0,8.6 -6.9,15.5 -15.5,15.5 -8.6,0 -15.5,-6.9 -15.5,-15.5 0,-0.5 0,-1 0,-1.5 0,-0.2 0,-0.3 0,-0.5 0,-0.3 0,-0.6 -0.1,-1 0,-0.2 0,-0.4 -0.1,-0.6 0,-0.3 -0.1,-0.6 -0.1,-0.8 0,-0.2 -0.1,-0.4 -0.1,-0.7 0,-0.2 -0.1,-0.5 -0.1,-0.7 0,-0.2 -0.1,-0.5 -0.1,-0.7 0,-0.2 -0.1,-0.4 -0.2,-0.7 -0.1,-0.3 -0.1,-0.5 -0.2,-0.8 -0.1,-0.2 -0.1,-0.4 -0.2,-0.6 -0.1,-0.3 -0.2,-0.5 -0.2,-0.8 -0.1,-0.2 -0.1,-0.3 -0.2,-0.5 -0.1,-0.3 -0.2,-0.6 -0.3,-0.9 0,-0.1 -0.1,-0.2 -0.1,-0.3 -0.1,-0.3 -0.3,-0.7 -0.4,-1 0,0 0,0 0,0 -1.2,-2.9 -2.9,-5.5 -4.9,-7.8 -0.7,-0.8 -1.4,-1.6 -2.2,-2.3 l 0,0 c -5.4,-5.1 -12.7,-8.2 -20.6,-8.2 -16.7,0 -30.2,13.5 -30.2,30.2 0,16.7 13.5,30.2 30.2,30.2 7.3,0 14,-2.6 19.2,-7 -0.7,-0.9 -2.8,-3.8 -4.2,-6.4 -1.5,-2.7 -2.8,-6.3 -3.1,-7.1 -2.8,3.4 -7.1,5.6 -11.9,5.6 -8.5,0 -15.5,-6.9 -15.5,-15.5 0,-8.6 6.9,-15.5 15.5,-15.5 8.5,0 15.5,6.9 15.5,15.5 l 0,0 c 0,0.5 0,1 0,1.5 0,0.2 0,0.3 0,0.5 0,0.3 0,0.6 0.1,1 0,0.2 0,0.4 0.1,0.6 0,0.3 0.1,0.6 0.1,0.8 0,0.2 0.1,0.4 0.1,0.7 0,0.2 0.1,0.5 0.1,0.7 0,0.2 0.1,0.5 0.1,0.7 0,0.2 0.1,0.4 0.2,0.7 0.1,0.3 0.1,0.5 0.2,0.8 0.1,0.2 0.1,0.4 0.2,0.6 0.1,0.3 0.2,0.5 0.2,0.8 0.1,0.2 0.1,0.3 0.2,0.5 0.1,0.3 0.2,0.6 0.3,0.9 0,0.1 0.1,0.2 0.1,0.3 0.1,0.3 0.3,0.7 0.4,1 0,0 0,0 0,0 1.2,2.9 2.9,5.5 4.9,7.8 0.3,0.4 0.7,0.7 1,1.1 0,0 0.1,0.1 0.1,0.1 0.3,0.3 0.7,0.7 1,1 0,0 0.1,0.1 0.1,0.1 5.4,5 12.6,8.1 20.6,8.1 16.7,0 30.2,-13.5 30.2,-30.2 0,-16.7 -13.5,-29.9 -30.2,-29.9 z"
         class="st5" /><path
         style="fill:#d40032"
         id="path85"
         d="m 602.7,282.3 c 4.5,-12.9 -0.4,-26.8 -10.9,-34.4 0.5,2.1 0.4,4.3 -0.3,6.4 -1.1,3.3 -3.7,5.8 -6.7,6.9 4.3,4 6.1,10.4 4,16.3 -2.3,6.6 -8.6,10.7 -15.3,10.4 -0.9,0 -1.8,-0.1 -2.7,-0.4 -0.6,-0.1 -1.1,-0.3 -1.7,-0.5 0,0 -0.1,0 -0.1,-0.1 -3.7,-0.9 -7.5,1.1 -8.7,4.8 -1.3,3.8 0.7,8 4.6,9.4 0.4,0.1 0.8,0.3 1.2,0.4 15.2,4.3 31.3,-4 36.6,-19.2 z"
         class="st6" /><g
         id="g87"><path
           style="fill:#fecd1a"
           id="path89"
           d="m 556.4,290.4 c 1.1,-3.3 3.6,-5.7 6.6,-6.9 -4.3,-4 -6.1,-10.4 -4.1,-16.3 2.8,-8.1 11.6,-12.4 19.7,-9.6 0,0 0,0 0.1,0 3.7,1.1 7.7,-0.9 9,-4.7 1.3,-3.8 -0.7,-8 -4.6,-9.4 -0.4,-0.1 -0.8,-0.3 -1.2,-0.4 -15.4,-4.4 -31.7,3.9 -36.9,19.2 -4.5,13 0.4,27 11.1,34.5 -0.5,-2 -0.4,-4.3 0.3,-6.4 z"
           class="st4" /></g><g
         id="g91"><path
           style="fill:#d40032"
           id="path93"
           d="m 612.7,300.8 0,-15.4 15.8,0 0,15.4 -15.8,0 z m 0.4,-23.4 0,-64.3 15.4,0 0,64.3 -15.4,0 z"
           class="st6" /></g></g></g></svg>